<mxfile host="app.diagrams.net" agent="Mozilla/5.0 (Windows NT 10.0; Win64; x64) AppleWebKit/537.36 (KHTML, like Gecko) Chrome/137.0.0.0 Safari/537.36" version="27.1.4">
  <diagram id="Ht1M8jgEwFfnCIfOTk4-" name="Page-1">
    <mxGraphModel dx="1428" dy="715" grid="1" gridSize="10" guides="1" tooltips="1" connect="1" arrows="1" fold="1" page="1" pageScale="1" pageWidth="1169" pageHeight="827" background="#ffffff" math="0" shadow="0">
      <root>
        <mxCell id="0" />
        <mxCell id="1" parent="0" />
        <mxCell id="sXS3y8bVh_gTUKPd6xVW-6" value="Availability Zone" style="fillColor=none;strokeColor=#147EBA;dashed=1;verticalAlign=top;fontStyle=0;fontColor=#147EBA;whiteSpace=wrap;html=1;" vertex="1" parent="1">
          <mxGeometry x="750" y="110" width="430" height="490" as="geometry" />
        </mxCell>
        <mxCell id="UEzPUAAOIrF-is8g5C7q-74" value="AWS Cloud" style="points=[[0,0],[0.25,0],[0.5,0],[0.75,0],[1,0],[1,0.25],[1,0.5],[1,0.75],[1,1],[0.75,1],[0.5,1],[0.25,1],[0,1],[0,0.75],[0,0.5],[0,0.25]];outlineConnect=0;gradientColor=none;html=1;whiteSpace=wrap;fontSize=12;fontStyle=0;shape=mxgraph.aws4.group;grIcon=mxgraph.aws4.group_aws_cloud_alt;strokeColor=#232F3E;fillColor=none;verticalAlign=top;align=left;spacingLeft=30;fontColor=#232F3E;dashed=0;labelBackgroundColor=#ffffff;container=1;pointerEvents=0;collapsible=0;recursiveResize=0;" parent="1" vertex="1">
          <mxGeometry x="100" y="20" width="1140" height="630" as="geometry" />
        </mxCell>
        <mxCell id="sXS3y8bVh_gTUKPd6xVW-1" value="Region" style="sketch=0;outlineConnect=0;gradientColor=none;html=1;whiteSpace=wrap;fontSize=12;fontStyle=0;shape=mxgraph.aws4.group;grIcon=mxgraph.aws4.group_region;strokeColor=#879196;fillColor=none;verticalAlign=top;align=left;spacingLeft=30;fontColor=#879196;dashed=1;" vertex="1" parent="1">
          <mxGeometry x="120" y="50" width="1100" height="580" as="geometry" />
        </mxCell>
        <mxCell id="sXS3y8bVh_gTUKPd6xVW-2" value="VPC" style="sketch=0;outlineConnect=0;gradientColor=none;html=1;whiteSpace=wrap;fontSize=12;fontStyle=0;shape=mxgraph.aws4.group;grIcon=mxgraph.aws4.group_vpc;strokeColor=#879196;fillColor=none;verticalAlign=top;align=left;spacingLeft=30;fontColor=#879196;dashed=0;" vertex="1" parent="1">
          <mxGeometry x="130" y="80" width="1050" height="540" as="geometry" />
        </mxCell>
        <mxCell id="sXS3y8bVh_gTUKPd6xVW-3" value="= eu-west-1" style="text;strokeColor=none;align=center;fillColor=none;html=1;verticalAlign=middle;whiteSpace=wrap;rounded=0;" vertex="1" parent="1">
          <mxGeometry x="190" y="50" width="70" height="30" as="geometry" />
        </mxCell>
        <mxCell id="sXS3y8bVh_gTUKPd6xVW-7" value="Availability Zone" style="fillColor=none;strokeColor=#147EBA;dashed=1;verticalAlign=top;fontStyle=0;fontColor=#147EBA;whiteSpace=wrap;html=1;" vertex="1" parent="1">
          <mxGeometry x="180" y="110" width="420" height="490" as="geometry" />
        </mxCell>
        <mxCell id="sXS3y8bVh_gTUKPd6xVW-11" value="Public subnet" style="points=[[0,0],[0.25,0],[0.5,0],[0.75,0],[1,0],[1,0.25],[1,0.5],[1,0.75],[1,1],[0.75,1],[0.5,1],[0.25,1],[0,1],[0,0.75],[0,0.5],[0,0.25]];outlineConnect=0;html=1;whiteSpace=wrap;fontSize=12;fontStyle=0;container=1;pointerEvents=0;collapsible=0;recursiveResize=0;shape=mxgraph.aws4.group;grIcon=mxgraph.aws4.group_security_group;grStroke=0;verticalAlign=top;align=left;spacingLeft=30;dashed=0;fillColor=#f5f5f5;fontColor=#333333;strokeColor=#666666;" vertex="1" parent="1">
          <mxGeometry x="200" y="140" width="360" height="236.5" as="geometry" />
        </mxCell>
        <mxCell id="sXS3y8bVh_gTUKPd6xVW-41" value="" style="rounded=1;arcSize=10;dashed=1;fillColor=none;gradientColor=none;dashPattern=1 1;strokeWidth=2;" vertex="1" parent="sXS3y8bVh_gTUKPd6xVW-11">
          <mxGeometry x="53.75" y="45" width="240" height="160" as="geometry" />
        </mxCell>
        <mxCell id="sXS3y8bVh_gTUKPd6xVW-16" value="" style="sketch=0;outlineConnect=0;fontColor=#232F3E;gradientColor=none;fillColor=#8C4FFF;strokeColor=none;dashed=0;verticalLabelPosition=bottom;verticalAlign=top;align=center;html=1;fontSize=12;fontStyle=0;aspect=fixed;pointerEvents=1;shape=mxgraph.aws4.network_access_control_list;" vertex="1" parent="sXS3y8bVh_gTUKPd6xVW-11">
          <mxGeometry x="-20" y="140" width="40" height="40" as="geometry" />
        </mxCell>
        <mxCell id="sXS3y8bVh_gTUKPd6xVW-24" value="Security group" style="fillColor=none;strokeColor=#DD3522;verticalAlign=top;fontStyle=0;fontColor=#DD3522;whiteSpace=wrap;html=1;" vertex="1" parent="sXS3y8bVh_gTUKPd6xVW-11">
          <mxGeometry x="30" y="30" width="280" height="190" as="geometry" />
        </mxCell>
        <mxCell id="sXS3y8bVh_gTUKPd6xVW-28" value="" style="sketch=0;points=[[0,0,0],[0.25,0,0],[0.5,0,0],[0.75,0,0],[1,0,0],[0,1,0],[0.25,1,0],[0.5,1,0],[0.75,1,0],[1,1,0],[0,0.25,0],[0,0.5,0],[0,0.75,0],[1,0.25,0],[1,0.5,0],[1,0.75,0]];outlineConnect=0;fontColor=#232F3E;fillColor=#ED7100;strokeColor=#ffffff;dashed=0;verticalLabelPosition=bottom;verticalAlign=top;align=center;html=1;fontSize=12;fontStyle=0;aspect=fixed;shape=mxgraph.aws4.resourceIcon;resIcon=mxgraph.aws4.ec2;" vertex="1" parent="sXS3y8bVh_gTUKPd6xVW-11">
          <mxGeometry x="70" y="60" width="50" height="50" as="geometry" />
        </mxCell>
        <mxCell id="sXS3y8bVh_gTUKPd6xVW-29" value="" style="sketch=0;points=[[0,0,0],[0.25,0,0],[0.5,0,0],[0.75,0,0],[1,0,0],[0,1,0],[0.25,1,0],[0.5,1,0],[0.75,1,0],[1,1,0],[0,0.25,0],[0,0.5,0],[0,0.75,0],[1,0.25,0],[1,0.5,0],[1,0.75,0]];outlineConnect=0;fontColor=#232F3E;fillColor=#ED7100;strokeColor=#ffffff;dashed=0;verticalLabelPosition=bottom;verticalAlign=top;align=center;html=1;fontSize=12;fontStyle=0;aspect=fixed;shape=mxgraph.aws4.resourceIcon;resIcon=mxgraph.aws4.ec2;" vertex="1" parent="sXS3y8bVh_gTUKPd6xVW-11">
          <mxGeometry x="220" y="60" width="50" height="50" as="geometry" />
        </mxCell>
        <mxCell id="sXS3y8bVh_gTUKPd6xVW-30" value="" style="sketch=0;points=[[0,0,0],[0.25,0,0],[0.5,0,0],[0.75,0,0],[1,0,0],[0,1,0],[0.25,1,0],[0.5,1,0],[0.75,1,0],[1,1,0],[0,0.25,0],[0,0.5,0],[0,0.75,0],[1,0.25,0],[1,0.5,0],[1,0.75,0]];outlineConnect=0;fontColor=#232F3E;fillColor=#ED7100;strokeColor=#ffffff;dashed=0;verticalLabelPosition=bottom;verticalAlign=top;align=center;html=1;fontSize=12;fontStyle=0;aspect=fixed;shape=mxgraph.aws4.resourceIcon;resIcon=mxgraph.aws4.ec2;" vertex="1" parent="sXS3y8bVh_gTUKPd6xVW-11">
          <mxGeometry x="70" y="140" width="50" height="50" as="geometry" />
        </mxCell>
        <mxCell id="sXS3y8bVh_gTUKPd6xVW-31" value="" style="sketch=0;points=[[0,0,0],[0.25,0,0],[0.5,0,0],[0.75,0,0],[1,0,0],[0,1,0],[0.25,1,0],[0.5,1,0],[0.75,1,0],[1,1,0],[0,0.25,0],[0,0.5,0],[0,0.75,0],[1,0.25,0],[1,0.5,0],[1,0.75,0]];outlineConnect=0;fontColor=#232F3E;fillColor=#ED7100;strokeColor=#ffffff;dashed=0;verticalLabelPosition=bottom;verticalAlign=top;align=center;html=1;fontSize=12;fontStyle=0;aspect=fixed;shape=mxgraph.aws4.resourceIcon;resIcon=mxgraph.aws4.ec2;" vertex="1" parent="sXS3y8bVh_gTUKPd6xVW-11">
          <mxGeometry x="220" y="140" width="50" height="50" as="geometry" />
        </mxCell>
        <mxCell id="sXS3y8bVh_gTUKPd6xVW-32" value="" style="sketch=0;points=[[0,0,0],[0.25,0,0],[0.5,0,0],[0.75,0,0],[1,0,0],[0,1,0],[0.25,1,0],[0.5,1,0],[0.75,1,0],[1,1,0],[0,0.25,0],[0,0.5,0],[0,0.75,0],[1,0.25,0],[1,0.5,0],[1,0.75,0]];outlineConnect=0;fontColor=#232F3E;fillColor=#ED7100;strokeColor=#ffffff;dashed=0;verticalLabelPosition=bottom;verticalAlign=top;align=center;html=1;fontSize=12;fontStyle=0;aspect=fixed;shape=mxgraph.aws4.resourceIcon;resIcon=mxgraph.aws4.auto_scaling2;" vertex="1" parent="sXS3y8bVh_gTUKPd6xVW-11">
          <mxGeometry x="150" y="101.25" width="47.5" height="47.5" as="geometry" />
        </mxCell>
        <mxCell id="sXS3y8bVh_gTUKPd6xVW-60" value="Auto Scaling" style="text;strokeColor=none;align=center;fillColor=none;html=1;verticalAlign=middle;whiteSpace=wrap;rounded=0;" vertex="1" parent="sXS3y8bVh_gTUKPd6xVW-11">
          <mxGeometry x="138.75" y="140" width="70" height="30" as="geometry" />
        </mxCell>
        <mxCell id="sXS3y8bVh_gTUKPd6xVW-61" value="EC2" style="text;strokeColor=none;align=center;fillColor=none;html=1;verticalAlign=middle;whiteSpace=wrap;rounded=0;" vertex="1" parent="sXS3y8bVh_gTUKPd6xVW-11">
          <mxGeometry x="60" y="40" width="70" height="30" as="geometry" />
        </mxCell>
        <mxCell id="sXS3y8bVh_gTUKPd6xVW-62" value="EC2" style="text;strokeColor=none;align=center;fillColor=none;html=1;verticalAlign=middle;whiteSpace=wrap;rounded=0;" vertex="1" parent="sXS3y8bVh_gTUKPd6xVW-11">
          <mxGeometry x="60" y="180" width="70" height="30" as="geometry" />
        </mxCell>
        <mxCell id="sXS3y8bVh_gTUKPd6xVW-63" value="EC2" style="text;strokeColor=none;align=center;fillColor=none;html=1;verticalAlign=middle;whiteSpace=wrap;rounded=0;" vertex="1" parent="sXS3y8bVh_gTUKPd6xVW-11">
          <mxGeometry x="220" y="180" width="70" height="30" as="geometry" />
        </mxCell>
        <mxCell id="sXS3y8bVh_gTUKPd6xVW-64" value="EC2" style="text;strokeColor=none;align=center;fillColor=none;html=1;verticalAlign=middle;whiteSpace=wrap;rounded=0;" vertex="1" parent="sXS3y8bVh_gTUKPd6xVW-11">
          <mxGeometry x="208.75" y="40" width="70" height="30" as="geometry" />
        </mxCell>
        <mxCell id="sXS3y8bVh_gTUKPd6xVW-76" value="NACL" style="text;html=1;align=center;verticalAlign=middle;resizable=0;points=[];autosize=1;strokeColor=none;fillColor=none;" vertex="1" parent="sXS3y8bVh_gTUKPd6xVW-11">
          <mxGeometry x="-30" y="170" width="60" height="30" as="geometry" />
        </mxCell>
        <mxCell id="sXS3y8bVh_gTUKPd6xVW-12" value="Public subnet" style="points=[[0,0],[0.25,0],[0.5,0],[0.75,0],[1,0],[1,0.25],[1,0.5],[1,0.75],[1,1],[0.75,1],[0.5,1],[0.25,1],[0,1],[0,0.75],[0,0.5],[0,0.25]];outlineConnect=0;html=1;whiteSpace=wrap;fontSize=12;fontStyle=0;container=1;pointerEvents=0;collapsible=0;recursiveResize=0;shape=mxgraph.aws4.group;grIcon=mxgraph.aws4.group_security_group;grStroke=0;verticalAlign=top;align=left;spacingLeft=30;dashed=0;fillColor=#f5f5f5;fontColor=#333333;strokeColor=#666666;" vertex="1" parent="1">
          <mxGeometry x="785" y="140" width="384" height="229" as="geometry" />
        </mxCell>
        <mxCell id="sXS3y8bVh_gTUKPd6xVW-20" value="" style="sketch=0;outlineConnect=0;fontColor=#232F3E;gradientColor=none;fillColor=#8C4FFF;strokeColor=none;dashed=0;verticalLabelPosition=bottom;verticalAlign=top;align=center;html=1;fontSize=12;fontStyle=0;aspect=fixed;pointerEvents=1;shape=mxgraph.aws4.network_access_control_list;" vertex="1" parent="sXS3y8bVh_gTUKPd6xVW-12">
          <mxGeometry x="355" y="140" width="40" height="40" as="geometry" />
        </mxCell>
        <mxCell id="sXS3y8bVh_gTUKPd6xVW-13" value="Private subnet" style="points=[[0,0],[0.25,0],[0.5,0],[0.75,0],[1,0],[1,0.25],[1,0.5],[1,0.75],[1,1],[0.75,1],[0.5,1],[0.25,1],[0,1],[0,0.75],[0,0.5],[0,0.25]];outlineConnect=0;gradientColor=none;html=1;whiteSpace=wrap;fontSize=12;fontStyle=0;container=1;pointerEvents=0;collapsible=0;recursiveResize=0;shape=mxgraph.aws4.group;grIcon=mxgraph.aws4.group_security_group;grStroke=0;strokeColor=#00A4A6;fillColor=#E6F6F7;verticalAlign=top;align=left;spacingLeft=30;fontColor=#147EBA;dashed=0;" vertex="1" parent="1">
          <mxGeometry x="790" y="380" width="379" height="210" as="geometry" />
        </mxCell>
        <mxCell id="sXS3y8bVh_gTUKPd6xVW-18" value="" style="sketch=0;outlineConnect=0;fontColor=#232F3E;gradientColor=none;fillColor=#8C4FFF;strokeColor=none;dashed=0;verticalLabelPosition=bottom;verticalAlign=top;align=center;html=1;fontSize=12;fontStyle=0;aspect=fixed;pointerEvents=1;shape=mxgraph.aws4.network_access_control_list;" vertex="1" parent="sXS3y8bVh_gTUKPd6xVW-13">
          <mxGeometry x="350" y="110" width="40" height="40" as="geometry" />
        </mxCell>
        <mxCell id="sXS3y8bVh_gTUKPd6xVW-14" value="Private subnet" style="points=[[0,0],[0.25,0],[0.5,0],[0.75,0],[1,0],[1,0.25],[1,0.5],[1,0.75],[1,1],[0.75,1],[0.5,1],[0.25,1],[0,1],[0,0.75],[0,0.5],[0,0.25]];outlineConnect=0;gradientColor=none;html=1;whiteSpace=wrap;fontSize=12;fontStyle=0;container=1;pointerEvents=0;collapsible=0;recursiveResize=0;shape=mxgraph.aws4.group;grIcon=mxgraph.aws4.group_security_group;grStroke=0;strokeColor=#00A4A6;fillColor=#E6F6F7;verticalAlign=top;align=left;spacingLeft=30;fontColor=#147EBA;dashed=0;" vertex="1" parent="1">
          <mxGeometry x="200" y="380" width="360" height="210" as="geometry" />
        </mxCell>
        <mxCell id="sXS3y8bVh_gTUKPd6xVW-15" value="" style="sketch=0;outlineConnect=0;fontColor=#232F3E;gradientColor=none;fillColor=#8C4FFF;strokeColor=none;dashed=0;verticalLabelPosition=bottom;verticalAlign=top;align=center;html=1;fontSize=12;fontStyle=0;aspect=fixed;pointerEvents=1;shape=mxgraph.aws4.internet_gateway;" vertex="1" parent="1">
          <mxGeometry x="646" y="60" width="58" height="58" as="geometry" />
        </mxCell>
        <mxCell id="sXS3y8bVh_gTUKPd6xVW-17" value="" style="sketch=0;outlineConnect=0;fontColor=#232F3E;gradientColor=none;fillColor=#8C4FFF;strokeColor=none;dashed=0;verticalLabelPosition=bottom;verticalAlign=top;align=center;html=1;fontSize=12;fontStyle=0;aspect=fixed;pointerEvents=1;shape=mxgraph.aws4.network_access_control_list;" vertex="1" parent="1">
          <mxGeometry x="180" y="490" width="40" height="40" as="geometry" />
        </mxCell>
        <mxCell id="sXS3y8bVh_gTUKPd6xVW-45" style="edgeStyle=orthogonalEdgeStyle;rounded=0;orthogonalLoop=1;jettySize=auto;html=1;dashed=1;dashPattern=8 8;flowAnimation=1;" edge="1" parent="1" source="sXS3y8bVh_gTUKPd6xVW-21" target="sXS3y8bVh_gTUKPd6xVW-15">
          <mxGeometry relative="1" as="geometry" />
        </mxCell>
        <mxCell id="sXS3y8bVh_gTUKPd6xVW-21" value="" style="points=[];aspect=fixed;html=1;align=center;shadow=0;dashed=0;fillColor=#FF6A00;strokeColor=none;shape=mxgraph.alibaba_cloud.route_table;" vertex="1" parent="1">
          <mxGeometry x="656.25" y="152.6" width="37.5" height="47.400000000000006" as="geometry" />
        </mxCell>
        <mxCell id="sXS3y8bVh_gTUKPd6xVW-22" value="" style="points=[];aspect=fixed;html=1;align=center;shadow=0;dashed=0;fillColor=#FF6A00;strokeColor=none;shape=mxgraph.alibaba_cloud.route_table;" vertex="1" parent="1">
          <mxGeometry x="630" y="414" width="37.5" height="47.400000000000006" as="geometry" />
        </mxCell>
        <mxCell id="sXS3y8bVh_gTUKPd6xVW-23" value="" style="points=[];aspect=fixed;html=1;align=center;shadow=0;dashed=0;fillColor=#FF6A00;strokeColor=none;shape=mxgraph.alibaba_cloud.route_table;" vertex="1" parent="1">
          <mxGeometry x="693.75" y="414" width="37.5" height="47.400000000000006" as="geometry" />
        </mxCell>
        <mxCell id="sXS3y8bVh_gTUKPd6xVW-25" value="Security group" style="fillColor=none;strokeColor=#DD3522;verticalAlign=top;fontStyle=0;fontColor=#DD3522;whiteSpace=wrap;html=1;" vertex="1" parent="1">
          <mxGeometry x="835" y="170" width="290" height="190" as="geometry" />
        </mxCell>
        <mxCell id="sXS3y8bVh_gTUKPd6xVW-26" value="Security group" style="fillColor=none;strokeColor=#DD3522;verticalAlign=top;fontStyle=0;fontColor=#DD3522;whiteSpace=wrap;html=1;" vertex="1" parent="1">
          <mxGeometry x="230" y="400" width="300" height="190" as="geometry" />
        </mxCell>
        <mxCell id="sXS3y8bVh_gTUKPd6xVW-27" value="Security group" style="fillColor=none;strokeColor=#DD3522;verticalAlign=top;fontStyle=0;fontColor=#DD3522;whiteSpace=wrap;html=1;" vertex="1" parent="1">
          <mxGeometry x="830" y="400" width="300" height="190" as="geometry" />
        </mxCell>
        <mxCell id="sXS3y8bVh_gTUKPd6xVW-33" value="" style="sketch=0;points=[[0,0,0],[0.25,0,0],[0.5,0,0],[0.75,0,0],[1,0,0],[0,1,0],[0.25,1,0],[0.5,1,0],[0.75,1,0],[1,1,0],[0,0.25,0],[0,0.5,0],[0,0.75,0],[1,0.25,0],[1,0.5,0],[1,0.75,0]];outlineConnect=0;fontColor=#232F3E;fillColor=#ED7100;strokeColor=#ffffff;dashed=0;verticalLabelPosition=bottom;verticalAlign=top;align=center;html=1;fontSize=12;fontStyle=0;aspect=fixed;shape=mxgraph.aws4.resourceIcon;resIcon=mxgraph.aws4.ec2;" vertex="1" parent="1">
          <mxGeometry x="870" y="200" width="50" height="50" as="geometry" />
        </mxCell>
        <mxCell id="sXS3y8bVh_gTUKPd6xVW-35" value="" style="sketch=0;points=[[0,0,0],[0.25,0,0],[0.5,0,0],[0.75,0,0],[1,0,0],[0,1,0],[0.25,1,0],[0.5,1,0],[0.75,1,0],[1,1,0],[0,0.25,0],[0,0.5,0],[0,0.75,0],[1,0.25,0],[1,0.5,0],[1,0.75,0]];outlineConnect=0;fontColor=#232F3E;fillColor=#ED7100;strokeColor=#ffffff;dashed=0;verticalLabelPosition=bottom;verticalAlign=top;align=center;html=1;fontSize=12;fontStyle=0;aspect=fixed;shape=mxgraph.aws4.resourceIcon;resIcon=mxgraph.aws4.ec2;" vertex="1" parent="1">
          <mxGeometry x="870" y="280" width="50" height="50" as="geometry" />
        </mxCell>
        <mxCell id="sXS3y8bVh_gTUKPd6xVW-36" value="" style="sketch=0;points=[[0,0,0],[0.25,0,0],[0.5,0,0],[0.75,0,0],[1,0,0],[0,1,0],[0.25,1,0],[0.5,1,0],[0.75,1,0],[1,1,0],[0,0.25,0],[0,0.5,0],[0,0.75,0],[1,0.25,0],[1,0.5,0],[1,0.75,0]];outlineConnect=0;fontColor=#232F3E;fillColor=#ED7100;strokeColor=#ffffff;dashed=0;verticalLabelPosition=bottom;verticalAlign=top;align=center;html=1;fontSize=12;fontStyle=0;aspect=fixed;shape=mxgraph.aws4.resourceIcon;resIcon=mxgraph.aws4.ec2;" vertex="1" parent="1">
          <mxGeometry x="1010" y="280" width="50" height="50" as="geometry" />
        </mxCell>
        <mxCell id="sXS3y8bVh_gTUKPd6xVW-37" value="" style="sketch=0;points=[[0,0,0],[0.25,0,0],[0.5,0,0],[0.75,0,0],[1,0,0],[0,1,0],[0.25,1,0],[0.5,1,0],[0.75,1,0],[1,1,0],[0,0.25,0],[0,0.5,0],[0,0.75,0],[1,0.25,0],[1,0.5,0],[1,0.75,0]];outlineConnect=0;fontColor=#232F3E;fillColor=#ED7100;strokeColor=#ffffff;dashed=0;verticalLabelPosition=bottom;verticalAlign=top;align=center;html=1;fontSize=12;fontStyle=0;aspect=fixed;shape=mxgraph.aws4.resourceIcon;resIcon=mxgraph.aws4.ec2;" vertex="1" parent="1">
          <mxGeometry x="1010" y="200" width="50" height="50" as="geometry" />
        </mxCell>
        <mxCell id="sXS3y8bVh_gTUKPd6xVW-38" value="" style="sketch=0;points=[[0,0,0],[0.25,0,0],[0.5,0,0],[0.75,0,0],[1,0,0],[0,1,0],[0.25,1,0],[0.5,1,0],[0.75,1,0],[1,1,0],[0,0.25,0],[0,0.5,0],[0,0.75,0],[1,0.25,0],[1,0.5,0],[1,0.75,0]];outlineConnect=0;fontColor=#232F3E;fillColor=#ED7100;strokeColor=#ffffff;dashed=0;verticalLabelPosition=bottom;verticalAlign=top;align=center;html=1;fontSize=12;fontStyle=0;aspect=fixed;shape=mxgraph.aws4.resourceIcon;resIcon=mxgraph.aws4.auto_scaling2;" vertex="1" parent="1">
          <mxGeometry x="940" y="232.5" width="47.5" height="47.5" as="geometry" />
        </mxCell>
        <mxCell id="sXS3y8bVh_gTUKPd6xVW-40" value="" style="outlineConnect=0;dashed=0;verticalLabelPosition=bottom;verticalAlign=top;align=center;html=1;shape=mxgraph.aws3.application_load_balancer;fillColor=#F58534;gradientColor=none;" vertex="1" parent="1">
          <mxGeometry x="640.5" y="258" width="59.5" height="62" as="geometry" />
        </mxCell>
        <mxCell id="sXS3y8bVh_gTUKPd6xVW-42" value="" style="rounded=1;arcSize=10;dashed=1;fillColor=none;gradientColor=none;dashPattern=1 1;strokeWidth=2;" vertex="1" parent="1">
          <mxGeometry x="845" y="185" width="240" height="160" as="geometry" />
        </mxCell>
        <mxCell id="sXS3y8bVh_gTUKPd6xVW-43" style="edgeStyle=orthogonalEdgeStyle;rounded=0;orthogonalLoop=1;jettySize=auto;html=1;entryX=0.021;entryY=0.65;entryDx=0;entryDy=0;entryPerimeter=0;dashed=1;dashPattern=8 8;flowAnimation=1;" edge="1" parent="1" source="sXS3y8bVh_gTUKPd6xVW-40" target="sXS3y8bVh_gTUKPd6xVW-42">
          <mxGeometry relative="1" as="geometry" />
        </mxCell>
        <mxCell id="sXS3y8bVh_gTUKPd6xVW-44" style="edgeStyle=orthogonalEdgeStyle;rounded=0;orthogonalLoop=1;jettySize=auto;html=1;entryX=1.012;entryY=0.642;entryDx=0;entryDy=0;entryPerimeter=0;dashed=1;dashPattern=8 8;flowAnimation=1;" edge="1" parent="1" source="sXS3y8bVh_gTUKPd6xVW-40" target="sXS3y8bVh_gTUKPd6xVW-41">
          <mxGeometry relative="1" as="geometry" />
        </mxCell>
        <mxCell id="sXS3y8bVh_gTUKPd6xVW-47" value="" style="endArrow=classic;startArrow=classic;html=1;rounded=0;exitX=0.98;exitY=0.626;exitDx=0;exitDy=0;exitPerimeter=0;edgeStyle=orthogonalEdgeStyle;entryX=0.98;entryY=0.626;entryDx=0;entryDy=0;entryPerimeter=0;dashed=1;dashPattern=8 8;flowAnimation=1;" edge="1" parent="1" target="sXS3y8bVh_gTUKPd6xVW-21">
          <mxGeometry width="50" height="50" relative="1" as="geometry">
            <mxPoint x="790" y="220" as="sourcePoint" />
            <mxPoint x="780" y="290" as="targetPoint" />
          </mxGeometry>
        </mxCell>
        <mxCell id="sXS3y8bVh_gTUKPd6xVW-48" value="" style="endArrow=classic;startArrow=classic;html=1;rounded=0;exitX=0.905;exitY=0.204;exitDx=0;exitDy=0;exitPerimeter=0;entryX=0.01;entryY=0.588;entryDx=0;entryDy=0;entryPerimeter=0;edgeStyle=orthogonalEdgeStyle;dashed=1;dashPattern=8 8;flowAnimation=1;" edge="1" parent="1" source="sXS3y8bVh_gTUKPd6xVW-7" target="sXS3y8bVh_gTUKPd6xVW-21">
          <mxGeometry width="50" height="50" relative="1" as="geometry">
            <mxPoint x="780" y="290" as="sourcePoint" />
            <mxPoint x="830" y="240" as="targetPoint" />
          </mxGeometry>
        </mxCell>
        <mxCell id="sXS3y8bVh_gTUKPd6xVW-49" value="" style="endArrow=classic;startArrow=classic;html=1;rounded=0;exitX=0.905;exitY=0.796;exitDx=0;exitDy=0;exitPerimeter=0;entryX=0.104;entryY=0.508;entryDx=0;entryDy=0;entryPerimeter=0;edgeStyle=orthogonalEdgeStyle;dashed=1;dashPattern=8 8;flowAnimation=1;" edge="1" parent="1" source="sXS3y8bVh_gTUKPd6xVW-7" target="sXS3y8bVh_gTUKPd6xVW-22">
          <mxGeometry width="50" height="50" relative="1" as="geometry">
            <mxPoint x="780" y="290" as="sourcePoint" />
            <mxPoint x="830" y="240" as="targetPoint" />
          </mxGeometry>
        </mxCell>
        <mxCell id="sXS3y8bVh_gTUKPd6xVW-53" value="" style="endArrow=classic;startArrow=classic;html=1;rounded=0;exitX=1.025;exitY=0.585;exitDx=0;exitDy=0;exitPerimeter=0;entryX=0.003;entryY=0.6;entryDx=0;entryDy=0;entryPerimeter=0;edgeStyle=orthogonalEdgeStyle;dashed=1;dashPattern=8 8;flowAnimation=1;" edge="1" parent="1" source="sXS3y8bVh_gTUKPd6xVW-23" target="sXS3y8bVh_gTUKPd6xVW-13">
          <mxGeometry width="50" height="50" relative="1" as="geometry">
            <mxPoint x="690" y="510" as="sourcePoint" />
            <mxPoint x="740" y="460" as="targetPoint" />
          </mxGeometry>
        </mxCell>
        <mxCell id="sXS3y8bVh_gTUKPd6xVW-59" value="Load Balancer" style="text;strokeColor=none;align=center;fillColor=none;html=1;verticalAlign=middle;whiteSpace=wrap;rounded=0;" vertex="1" parent="1">
          <mxGeometry x="635.25" y="325" width="70" height="30" as="geometry" />
        </mxCell>
        <mxCell id="sXS3y8bVh_gTUKPd6xVW-65" value="EC2" style="text;strokeColor=none;align=center;fillColor=none;html=1;verticalAlign=middle;whiteSpace=wrap;rounded=0;" vertex="1" parent="1">
          <mxGeometry x="860" y="180" width="70" height="30" as="geometry" />
        </mxCell>
        <mxCell id="sXS3y8bVh_gTUKPd6xVW-66" value="EC2" style="text;strokeColor=none;align=center;fillColor=none;html=1;verticalAlign=middle;whiteSpace=wrap;rounded=0;" vertex="1" parent="1">
          <mxGeometry x="1000" y="180" width="70" height="30" as="geometry" />
        </mxCell>
        <mxCell id="sXS3y8bVh_gTUKPd6xVW-67" value="EC2" style="text;strokeColor=none;align=center;fillColor=none;html=1;verticalAlign=middle;whiteSpace=wrap;rounded=0;" vertex="1" parent="1">
          <mxGeometry x="1000" y="320" width="70" height="30" as="geometry" />
        </mxCell>
        <mxCell id="sXS3y8bVh_gTUKPd6xVW-68" value="EC2" style="text;strokeColor=none;align=center;fillColor=none;html=1;verticalAlign=middle;whiteSpace=wrap;rounded=0;" vertex="1" parent="1">
          <mxGeometry x="860" y="320" width="70" height="30" as="geometry" />
        </mxCell>
        <mxCell id="sXS3y8bVh_gTUKPd6xVW-69" value="Auto Scaling" style="text;strokeColor=none;align=center;fillColor=none;html=1;verticalAlign=middle;whiteSpace=wrap;rounded=0;" vertex="1" parent="1">
          <mxGeometry x="930" y="270" width="70" height="30" as="geometry" />
        </mxCell>
        <mxCell id="sXS3y8bVh_gTUKPd6xVW-71" value="" style="sketch=0;outlineConnect=0;fontColor=#232F3E;gradientColor=none;fillColor=#8C4FFF;strokeColor=none;dashed=0;verticalLabelPosition=bottom;verticalAlign=top;align=center;html=1;fontSize=12;fontStyle=0;aspect=fixed;pointerEvents=1;shape=mxgraph.aws4.nat_gateway;" vertex="1" parent="1">
          <mxGeometry x="510" y="305" width="50" height="50" as="geometry" />
        </mxCell>
        <mxCell id="sXS3y8bVh_gTUKPd6xVW-72" value="" style="sketch=0;outlineConnect=0;fontColor=#232F3E;gradientColor=none;fillColor=#8C4FFF;strokeColor=none;dashed=0;verticalLabelPosition=bottom;verticalAlign=top;align=center;html=1;fontSize=12;fontStyle=0;aspect=fixed;pointerEvents=1;shape=mxgraph.aws4.nat_gateway;" vertex="1" parent="1">
          <mxGeometry x="785" y="310" width="50" height="50" as="geometry" />
        </mxCell>
        <mxCell id="sXS3y8bVh_gTUKPd6xVW-73" value="" style="endArrow=classic;startArrow=classic;html=1;rounded=0;exitX=-0.1;exitY=0.6;exitDx=0;exitDy=0;exitPerimeter=0;entryX=0.562;entryY=0.059;entryDx=0;entryDy=0;entryPerimeter=0;dashed=1;dashPattern=8 8;flowAnimation=1;edgeStyle=orthogonalEdgeStyle;" edge="1" parent="1" source="sXS3y8bVh_gTUKPd6xVW-72" target="sXS3y8bVh_gTUKPd6xVW-23">
          <mxGeometry width="50" height="50" relative="1" as="geometry">
            <mxPoint x="780" y="320" as="sourcePoint" />
            <mxPoint x="710" y="390" as="targetPoint" />
          </mxGeometry>
        </mxCell>
        <mxCell id="sXS3y8bVh_gTUKPd6xVW-75" value="" style="endArrow=classic;startArrow=classic;html=1;rounded=0;exitX=0.516;exitY=0.021;exitDx=0;exitDy=0;exitPerimeter=0;entryX=1.005;entryY=0.491;entryDx=0;entryDy=0;entryPerimeter=0;dashed=1;dashPattern=8 8;flowAnimation=1;edgeStyle=orthogonalEdgeStyle;" edge="1" parent="1" source="sXS3y8bVh_gTUKPd6xVW-22" target="sXS3y8bVh_gTUKPd6xVW-71">
          <mxGeometry width="50" height="50" relative="1" as="geometry">
            <mxPoint x="590" y="390" as="sourcePoint" />
            <mxPoint x="640" y="340" as="targetPoint" />
          </mxGeometry>
        </mxCell>
        <mxCell id="sXS3y8bVh_gTUKPd6xVW-77" value="NACL" style="text;html=1;align=center;verticalAlign=middle;resizable=0;points=[];autosize=1;strokeColor=none;fillColor=none;" vertex="1" parent="1">
          <mxGeometry x="170" y="520" width="60" height="30" as="geometry" />
        </mxCell>
        <mxCell id="sXS3y8bVh_gTUKPd6xVW-78" value="NACL" style="text;html=1;align=center;verticalAlign=middle;resizable=0;points=[];autosize=1;strokeColor=none;fillColor=none;" vertex="1" parent="1">
          <mxGeometry x="1169" y="500" width="60" height="30" as="geometry" />
        </mxCell>
        <mxCell id="sXS3y8bVh_gTUKPd6xVW-83" value="Nat Gateway" style="text;html=1;align=center;verticalAlign=middle;resizable=0;points=[];autosize=1;strokeColor=none;fillColor=none;" vertex="1" parent="1">
          <mxGeometry x="500" y="345" width="90" height="30" as="geometry" />
        </mxCell>
        <mxCell id="sXS3y8bVh_gTUKPd6xVW-84" value="Nat Gateway" style="text;html=1;align=center;verticalAlign=middle;resizable=0;points=[];autosize=1;strokeColor=none;fillColor=none;" vertex="1" parent="1">
          <mxGeometry x="770" y="346.5" width="90" height="30" as="geometry" />
        </mxCell>
        <mxCell id="sXS3y8bVh_gTUKPd6xVW-85" value="NACL" style="text;html=1;align=center;verticalAlign=middle;resizable=0;points=[];autosize=1;strokeColor=none;fillColor=none;" vertex="1" parent="1">
          <mxGeometry x="1170" y="290" width="60" height="30" as="geometry" />
        </mxCell>
        <mxCell id="sXS3y8bVh_gTUKPd6xVW-86" value="" style="sketch=0;outlineConnect=0;fontColor=#232F3E;gradientColor=none;fillColor=#C925D1;strokeColor=none;dashed=0;verticalLabelPosition=bottom;verticalAlign=top;align=center;html=1;fontSize=12;fontStyle=0;aspect=fixed;pointerEvents=1;shape=mxgraph.aws4.rds_mysql_instance;" vertex="1" parent="1">
          <mxGeometry x="422" y="502" width="78" height="78" as="geometry" />
        </mxCell>
        <mxCell id="sXS3y8bVh_gTUKPd6xVW-88" value="" style="outlineConnect=0;dashed=0;verticalLabelPosition=bottom;verticalAlign=top;align=center;html=1;shape=mxgraph.aws3.rds_db_instance_read_replica;fillColor=#2E73B8;gradientColor=none;" vertex="1" parent="1">
          <mxGeometry x="940.25" y="500" width="49.5" height="66" as="geometry" />
        </mxCell>
        <mxCell id="sXS3y8bVh_gTUKPd6xVW-89" value="SQL replica" style="sketch=0;outlineConnect=0;fontColor=#232F3E;gradientColor=none;strokeColor=#232F3E;fillColor=#ffffff;dashed=0;verticalLabelPosition=bottom;verticalAlign=top;align=center;html=1;fontSize=12;fontStyle=0;aspect=fixed;shape=mxgraph.aws4.resourceIcon;resIcon=mxgraph.aws4.sql_replica;" vertex="1" parent="1">
          <mxGeometry x="330" y="430" width="60" height="60" as="geometry" />
        </mxCell>
        <mxCell id="sXS3y8bVh_gTUKPd6xVW-91" value="" style="endArrow=classic;startArrow=classic;html=1;rounded=0;entryX=0.464;entryY=0.895;entryDx=0;entryDy=0;entryPerimeter=0;dashed=1;dashPattern=8 8;flowAnimation=1;" edge="1" parent="1" source="sXS3y8bVh_gTUKPd6xVW-89" target="sXS3y8bVh_gTUKPd6xVW-24">
          <mxGeometry width="50" height="50" relative="1" as="geometry">
            <mxPoint x="660" y="350" as="sourcePoint" />
            <mxPoint x="710" y="300" as="targetPoint" />
          </mxGeometry>
        </mxCell>
        <mxCell id="sXS3y8bVh_gTUKPd6xVW-92" value="" style="endArrow=classic;startArrow=classic;html=1;rounded=0;entryX=0.019;entryY=0.488;entryDx=0;entryDy=0;entryPerimeter=0;dashed=1;dashPattern=8 8;flowAnimation=1;" edge="1" parent="1" source="sXS3y8bVh_gTUKPd6xVW-89" target="sXS3y8bVh_gTUKPd6xVW-86">
          <mxGeometry width="50" height="50" relative="1" as="geometry">
            <mxPoint x="390" y="500" as="sourcePoint" />
            <mxPoint x="350" y="530" as="targetPoint" />
          </mxGeometry>
        </mxCell>
        <mxCell id="sXS3y8bVh_gTUKPd6xVW-93" value="" style="endArrow=classic;startArrow=classic;html=1;rounded=0;entryX=0;entryY=0.5;entryDx=0;entryDy=0;entryPerimeter=0;dashed=1;dashPattern=8 8;flowAnimation=1;" edge="1" parent="1" source="sXS3y8bVh_gTUKPd6xVW-86" target="sXS3y8bVh_gTUKPd6xVW-88">
          <mxGeometry width="50" height="50" relative="1" as="geometry">
            <mxPoint x="660" y="350" as="sourcePoint" />
            <mxPoint x="710" y="300" as="targetPoint" />
          </mxGeometry>
        </mxCell>
        <mxCell id="sXS3y8bVh_gTUKPd6xVW-94" value="" style="endArrow=classic;startArrow=classic;html=1;rounded=0;entryX=0.5;entryY=1;entryDx=0;entryDy=0;dashed=1;dashPattern=8 8;flowAnimation=1;" edge="1" parent="1" source="sXS3y8bVh_gTUKPd6xVW-88" target="sXS3y8bVh_gTUKPd6xVW-42">
          <mxGeometry width="50" height="50" relative="1" as="geometry">
            <mxPoint x="930" y="470" as="sourcePoint" />
            <mxPoint x="980" y="420" as="targetPoint" />
          </mxGeometry>
        </mxCell>
        <mxCell id="sXS3y8bVh_gTUKPd6xVW-96" value="" style="endArrow=classic;startArrow=classic;html=1;rounded=0;entryX=0.071;entryY=0.474;entryDx=0;entryDy=0;entryPerimeter=0;exitX=0.5;exitY=0.99;exitDx=0;exitDy=0;exitPerimeter=0;edgeStyle=orthogonalEdgeStyle;dashed=1;dashPattern=8 8;flowAnimation=1;" edge="1" parent="1" source="sXS3y8bVh_gTUKPd6xVW-88" target="sXS3y8bVh_gTUKPd6xVW-24">
          <mxGeometry width="50" height="50" relative="1" as="geometry">
            <mxPoint x="20" y="370" as="sourcePoint" />
            <mxPoint x="70" y="320" as="targetPoint" />
            <Array as="points">
              <mxPoint x="965" y="610" />
              <mxPoint x="150" y="610" />
              <mxPoint x="150" y="260" />
            </Array>
          </mxGeometry>
        </mxCell>
        <mxCell id="sXS3y8bVh_gTUKPd6xVW-97" value="Read Replica" style="text;strokeColor=none;align=center;fillColor=none;html=1;verticalAlign=middle;whiteSpace=wrap;rounded=0;" vertex="1" parent="1">
          <mxGeometry x="987.5" y="518" width="82.5" height="30" as="geometry" />
        </mxCell>
        <mxCell id="sXS3y8bVh_gTUKPd6xVW-98" value="Write" style="text;strokeColor=none;align=center;fillColor=none;html=1;verticalAlign=middle;whiteSpace=wrap;rounded=0;" vertex="1" parent="1">
          <mxGeometry x="333.75" y="431.4" width="52.5" height="30" as="geometry" />
        </mxCell>
        <mxCell id="sXS3y8bVh_gTUKPd6xVW-99" value="IGW" style="text;strokeColor=none;align=center;fillColor=none;html=1;verticalAlign=middle;whiteSpace=wrap;rounded=0;" vertex="1" parent="1">
          <mxGeometry x="642.63" y="40" width="64.75" height="30" as="geometry" />
        </mxCell>
      </root>
    </mxGraphModel>
  </diagram>
</mxfile>
